<svg width="1024" height="439" viewBox="0 0 1024 439" fill="none" xmlns="http://www.w3.org/2000/svg">
<rect width="1024" height="439" fill="#EAF5FA"/>
<path d="M0 237.429V439H1024V382.143V0.5H685.52C635.948 0.5 588.142 18.9099 551.374 52.1593L375.063 211.599C356.679 228.224 332.776 237.429 307.99 237.429H0Z" fill="#D5F2FF"/>
<path d="M936.614 291.408H867.848C861.151 291.408 855.701 285.966 855.701 279.273C855.701 272.58 861.149 267.138 867.848 267.138H936.614C943.311 267.138 948.761 272.58 948.761 279.273C948.759 285.963 943.311 291.408 936.614 291.408ZM867.848 267.951C861.598 267.951 856.514 273.029 856.514 279.273C856.514 285.516 861.598 290.595 867.848 290.595H936.614C942.863 290.595 947.947 285.516 947.947 279.273C947.947 273.029 942.863 267.951 936.614 267.951H867.848Z" fill="#BDE6FA"/>
<path d="M949.329 270.113H908.278C904.322 270.113 900.734 268.566 898.175 265.754C895.601 262.926 894.39 259.178 894.77 255.199L902.335 175.847C903.116 167.667 910.412 161.01 918.603 161.01H959.656C963.613 161.01 967.2 162.557 969.76 165.369C972.334 168.197 973.545 171.945 973.164 175.923L965.599 255.275C964.816 263.456 957.52 270.113 949.329 270.113ZM918.6 161.82C910.819 161.82 903.884 168.147 903.142 175.921L895.579 255.275C895.222 259.021 896.357 262.548 898.776 265.205C901.179 267.846 904.555 269.3 908.278 269.3H949.332C957.113 269.3 964.048 262.973 964.79 255.199L972.355 175.847C972.712 172.102 971.577 168.575 969.158 165.915C966.755 163.275 963.38 161.82 959.656 161.82H918.6Z" fill="#229BD8"/>
<path d="M1027.84 240.037H958.983V371.395H1027.84V240.037Z" fill="#54BAED"/>
<path d="M1034.27 231.873H952.543V240.864H1034.27V231.873Z" fill="#54BAED"/>
<path fill-rule="evenodd" clip-rule="evenodd" d="M966.158 275.887H1020.66V251.345H966.158V275.887ZM1021.15 276.866H965.668H965.178V276.376V250.856V250.366H965.668H1021.15H1021.64V250.856V276.376V276.866H1021.15Z" fill="#064C6F"/>
<path d="M1012.08 254.782H974.742V258.285H1012.08V254.782Z" fill="#E6E8F6"/>
<path d="M990.421 220.725H982.673V231.871H990.421V220.725Z" fill="white"/>
<path d="M991.306 215.971H981.788V220.726H991.306V215.971Z" fill="#8FB2EE"/>
<path d="M989.253 222.487H983.841V230.109H989.253V222.487Z" fill="#E6E8F6"/>
<path d="M1015.54 222.347H992.346V231.872H1015.54V222.347Z" fill="#E9B0B8"/>
<path d="M1015.54 224.636H992.346V226.637H1015.54V224.636Z" fill="white"/>
<path fill-rule="evenodd" clip-rule="evenodd" d="M1021.67 215.116H1026.14C1027.72 215.116 1029.01 216.404 1029.01 217.98V230.439C1029.01 231.225 1028.36 231.872 1027.58 231.872H1020.23C1019.44 231.872 1018.8 231.228 1018.8 230.439V217.98C1018.8 216.404 1020.09 215.116 1021.67 215.116Z" fill="#E6E8F6"/>
<path d="M1025.58 213.629H1022.23V216.405H1025.58V213.629Z" fill="#E6E8F6"/>
<path fill-rule="evenodd" clip-rule="evenodd" d="M1022.27 210.338H1025.55C1025.87 210.338 1026.13 210.599 1026.13 210.918V213.594C1026.13 213.912 1025.87 214.171 1025.55 214.171H1022.27C1021.95 214.171 1021.69 213.91 1021.69 213.594V210.918C1021.69 210.599 1021.95 210.338 1022.27 210.338Z" fill="#8FB2EE"/>
<path d="M1027.15 219.115H1020.66V229.903H1027.15V219.115Z" fill="white"/>
<path d="M1027.15 220.198H1020.66V222.19H1027.15V220.198Z" fill="#8FB2EE"/>
<path fill-rule="evenodd" clip-rule="evenodd" d="M966.158 316.122C984.326 316.122 1002.49 316.122 1020.66 316.122C1020.66 307.942 1020.66 299.761 1020.66 291.581C1002.49 291.581 984.324 291.581 966.158 291.581C966.158 299.761 966.158 307.942 966.158 316.122ZM1021.15 317.101C1002.66 317.101 984.162 317.101 965.668 317.101C965.504 317.101 965.342 317.101 965.178 317.101C965.178 316.937 965.178 316.776 965.178 316.612C965.178 308.103 965.178 299.597 965.178 291.091C965.178 290.927 965.178 290.766 965.178 290.602C965.342 290.602 965.504 290.602 965.668 290.602C984.162 290.602 1002.66 290.602 1021.15 290.602C1021.31 290.602 1021.48 290.602 1021.64 290.602C1021.64 290.766 1021.64 290.927 1021.64 291.091C1021.64 299.597 1021.64 308.106 1021.64 316.612C1021.64 316.776 1021.64 316.937 1021.64 317.101C1021.48 317.101 1021.31 317.101 1021.15 317.101Z" fill="#064C6F"/>
<path fill-rule="evenodd" clip-rule="evenodd" d="M974.742 295.018C987.186 295.018 999.633 295.018 1012.08 295.018C1012.08 296.185 1012.08 297.351 1012.08 298.521C999.633 298.521 987.188 298.521 974.742 298.521C974.742 297.351 974.742 296.185 974.742 295.018Z" fill="#E6E8F6"/>
<path fill-rule="evenodd" clip-rule="evenodd" d="M966.158 356.361H1020.66V331.82H966.158V356.361ZM1021.15 357.341H965.668H965.178V356.851V331.33V330.841H965.668H1021.15H1021.64V331.33V356.851V357.341H1021.15Z" fill="#064C6F"/>
<path d="M1012.08 335.254H974.742V338.757H1012.08V335.254Z" fill="#E6E8F6"/>
<path fill-rule="evenodd" clip-rule="evenodd" d="M969.646 371.395L964.95 389.091H958.983V371.395H969.646Z" fill="#54BAED"/>
<path fill-rule="evenodd" clip-rule="evenodd" d="M1017.17 371.395L1021.87 389.091H1027.84V371.395H1017.17Z" fill="#E6E8F6"/>
<path d="M1034.28 241.271H952.139V231.871H952.95V240.458H1034.28V241.271Z" fill="#064C6F"/>
<path d="M1027.84 371.801H958.577V305.716H959.39V370.991H1027.84V371.801Z" fill="#064C6F"/>
<path d="M797.562 389.496H790.051V287.057H797.562V389.496ZM790.865 388.685H796.75V287.867H790.865V388.685Z" fill="#064C6F"/>
<path d="M715.464 389.496H707.953V291.68H715.464V389.496ZM708.764 388.686H714.65V292.49H708.764V388.686Z" fill="#BDE6FA"/>
<path d="M807.31 292.49H701.537C699.924 292.49 698.613 290.838 698.613 288.809V284.26C698.613 276.509 703.502 270.204 709.511 270.204H799.341C805.35 270.204 810.239 276.509 810.239 284.26V288.809C810.234 290.838 808.923 292.49 807.31 292.49ZM709.509 271.017C703.949 271.017 699.425 276.959 699.425 284.26V288.809C699.425 290.363 700.393 291.68 701.537 291.68H807.31C808.455 291.68 809.423 290.365 809.423 288.809V284.26C809.423 276.959 804.898 271.017 799.338 271.017H709.509Z" fill="#BDE6FA"/>
<path d="M789.556 252.486H719.291C708.286 252.486 699.332 243.54 699.332 232.545V204.342C699.332 193.347 708.286 184.401 719.291 184.401H789.556C800.561 184.401 809.515 193.347 809.515 204.342V232.543C809.515 243.54 800.561 252.486 789.556 252.486ZM719.291 185.212C708.733 185.212 700.145 193.794 700.145 204.342V232.543C700.145 243.091 708.736 251.673 719.291 251.673H789.556C800.114 251.673 808.702 243.091 808.702 232.543V204.342C808.702 193.794 800.114 185.212 789.556 185.212H719.291Z" fill="#BDE6FA"/>
<path fill-rule="evenodd" clip-rule="evenodd" d="M714.802 247.302C715.523 252.338 714.921 269.11 727.163 271.271C739.405 273.429 774.997 270.612 774.997 270.612H788.738L785.484 244.899L714.802 247.302Z" fill="#229BD8"/>
<path fill-rule="evenodd" clip-rule="evenodd" d="M714.801 247.301L789.246 248.352L787.885 192.25L790.616 144.615C780.484 138.978 767.726 136.002 753.29 136.002C738.857 136.002 726.098 138.975 715.966 144.615L718.138 192.25L714.801 247.301Z" fill="white"/>
<path d="M789.661 248.764L789.237 248.757L714.367 247.699L717.731 192.247L715.549 144.381L715.768 144.26C725.955 138.591 738.929 135.597 753.289 135.597C767.651 135.597 780.626 138.591 790.812 144.26L791.036 144.383L791.022 144.638L788.293 192.256L789.661 248.764ZM715.233 246.903L788.828 247.942L787.477 192.244V192.228L790.194 144.847C780.162 139.326 767.408 136.409 753.289 136.409C739.17 136.409 726.414 139.328 716.382 144.849L718.542 192.256L718.539 192.278L715.233 246.903Z" fill="#064C6F"/>
<path fill-rule="evenodd" clip-rule="evenodd" d="M765.165 136.694L755.994 153.077L741.416 136.694L743.637 111.174H762.938L765.165 136.694Z" fill="#F8E4BD"/>
<path fill-rule="evenodd" clip-rule="evenodd" d="M805.981 389.091C806.14 387.903 806.652 385.36 805.236 384.511C804.204 383.893 800.088 384.186 799.455 383.988C798.682 383.748 794.921 378.187 794.169 377.16H785.924L781.761 380.977L780.673 389.093H805.981V389.091Z" fill="#064C6F"/>
<path fill-rule="evenodd" clip-rule="evenodd" d="M770.037 389.091C769.989 387.903 770.056 385.36 768.493 384.511C767.354 383.893 766.635 384.186 765.969 383.988C765.153 383.748 760.419 378.187 759.489 377.16H751.243L747.749 380.977L748.079 389.093H770.037V389.091Z" fill="#064C6F"/>
<path fill-rule="evenodd" clip-rule="evenodd" d="M715.965 144.613C706.038 147.655 698.982 195.555 698.832 217.277L716.743 218.566C718.328 208.978 721.577 190.409 721.577 190.409C721.577 190.409 721.939 158.293 715.965 144.613Z" fill="#F8E4BD"/>
<path fill-rule="evenodd" clip-rule="evenodd" d="M704.194 171.705C701.128 186.153 699.201 203.239 698.877 214.735L718.192 209.969C719.767 200.741 721.575 190.407 721.575 190.407C721.575 190.407 721.646 183.966 721.19 175.624L704.194 171.705Z" fill="#F2CC93"/>
<path fill-rule="evenodd" clip-rule="evenodd" d="M715.965 144.613C708.581 146.876 699.291 177.841 696.27 203.83L719.743 206.575C721.161 197.881 721.58 190.407 721.58 190.407C721.58 190.407 721.939 158.293 715.965 144.613Z" fill="#BDE6FA"/>
<path d="M718.737 209.972L717.928 209.899C717.964 209.506 721.463 170.398 715.906 151.956L716.684 151.723C722.286 170.315 718.775 209.578 718.737 209.972Z" fill="#064C6F"/>
<path fill-rule="evenodd" clip-rule="evenodd" d="M806.778 261.504L799.308 379.962L774.141 380.677C774.188 343.746 774.973 298.435 775.021 261.502C774.419 249.642 785.65 245.954 791.357 246.809C796.308 247.556 806.154 249.578 806.778 261.504Z" fill="#229BD8"/>
<path fill-rule="evenodd" clip-rule="evenodd" d="M742.096 128.886C742.517 124.054 742.717 121.749 743.138 116.917C750.135 119.546 757.131 122.172 764.128 124.8C758.361 129.321 747.782 138.307 742.096 128.886Z" fill="#F2CC93"/>
<path fill-rule="evenodd" clip-rule="evenodd" d="M756.893 80.127C752.742 80.0985 740.236 80.1555 739.515 96.324C738.797 112.492 741.109 117.868 743.003 120.347C745.424 123.518 749.378 127.061 759.401 128.699C765.286 128.556 766.371 125.079 768.324 121.692C769.882 118.99 772.951 113.545 773.237 97.3649C773.518 81.1822 761.037 80.3552 756.893 80.127Z" fill="#F8E4BD"/>
<path fill-rule="evenodd" clip-rule="evenodd" d="M755.451 103.557C756.243 103.588 756.891 104.403 756.895 105.377C756.9 106.352 756.26 107.117 755.466 107.086C754.671 107.055 754.026 106.24 754.022 105.266C754.017 104.291 754.657 103.523 755.451 103.557Z" fill="#064C6F"/>
<path fill-rule="evenodd" clip-rule="evenodd" d="M768.514 104.29C767.72 104.271 767.025 105.046 766.961 106.018C766.897 106.99 767.487 107.794 768.281 107.813C769.076 107.832 769.77 107.057 769.835 106.085C769.899 105.11 769.309 104.307 768.514 104.29Z" fill="#064C6F"/>
<path d="M763.071 114.639C762.852 114.639 762.707 114.625 762.695 114.625L762.774 113.817C762.793 113.819 764.855 114 765.005 112.806C765.055 112.414 764.97 111.288 764.874 109.983C764.698 107.606 764.456 104.35 764.758 102.29C764.953 100.945 766.249 100.053 766.744 100.039L766.77 100.852C766.778 100.852 766.785 100.852 766.792 100.85C766.587 100.892 765.695 101.498 765.564 102.406C765.276 104.379 765.514 107.583 765.688 109.924C765.797 111.383 765.876 112.438 765.817 112.909C765.712 113.738 765.098 114.318 764.089 114.539C763.704 114.62 763.335 114.639 763.071 114.639Z" fill="#064C6F"/>
<path d="M762.548 119.861C760.129 119.861 758.782 118.815 758.701 118.751L759.208 118.116C759.313 118.199 761.827 120.11 766.321 118.216L766.637 118.965C765.051 119.63 763.683 119.861 762.548 119.861Z" fill="#064C6F"/>
<path fill-rule="evenodd" clip-rule="evenodd" d="M739.023 109.417C739.241 109.282 739.527 109.35 739.661 109.569L744.963 118.184C745.098 118.403 745.03 118.688 744.811 118.823C744.593 118.957 744.307 118.889 744.173 118.671L738.871 110.055C738.737 109.837 738.805 109.551 739.023 109.417Z" fill="#064C6F"/>
<path d="M758.382 100.723C756.696 100.248 754.015 100.036 753.168 100.31L752.918 99.5374C754.015 99.1833 756.924 99.4685 758.604 99.9414L758.382 100.723Z" fill="#064C6F"/>
<path d="M771.814 101.452C771.027 101.033 768.353 100.769 766.609 100.941L766.53 100.132C768.265 99.9637 771.181 100.194 772.197 100.736L771.814 101.452Z" fill="#064C6F"/>
<path fill-rule="evenodd" clip-rule="evenodd" d="M745.617 91.3406C744.116 92.1772 746.604 104.94 739.919 103.82C735.911 96.9495 735.556 88.5528 741.411 85.475C742.817 79.6237 748.75 77.4656 756.125 78.1097C760.381 78.4805 764.887 82.604 769.725 82.9106C777.288 83.3907 779.362 88.0703 776.446 92.1011C775.178 93.8527 771.191 93.9906 769.502 93.2728C767.147 92.2746 760.533 96.2009 755.973 95.7731C750.779 95.2859 749.135 92.4244 745.617 91.3406Z" fill="#064C6F"/>
<path d="M752.544 97.9165C749.811 97.2535 747.401 95.3093 745.933 92.5857C744.439 89.8121 744.109 86.5917 745.051 83.9727L745.814 84.246C744.951 86.6512 745.262 89.6244 746.649 92.1983C748.008 94.7199 750.225 96.5143 752.735 97.1251L752.544 97.9165Z" fill="#064C6F"/>
<path fill-rule="evenodd" clip-rule="evenodd" d="M740.552 103.363C740.057 102.377 739.441 101.566 738.18 101.26C736.92 100.953 734.593 101.528 734.488 105.124C734.381 108.72 737.288 111.902 739.199 111.534C741.109 111.166 740.552 103.363 740.552 103.363Z" fill="#F8E4BD"/>
<path d="M739.396 105.087L738.787 105.068V105.079C738.763 104.904 738.23 104.091 737.452 103.803C736.952 103.62 736.505 103.713 736.084 104.088L735.677 103.634C736.312 103.069 737.083 102.952 737.844 103.306C738.684 103.699 739.41 104.628 739.396 105.087Z" fill="#064C6F"/>
<path d="M759.624 128.722C749.338 127.042 745.32 123.294 742.969 120.216C741.511 118.306 740.55 115.67 739.95 111.924L740.752 111.796C741.323 115.354 742.26 117.947 743.616 119.724C745.876 122.683 749.752 126.289 759.755 127.922L759.624 128.722Z" fill="#064C6F"/>
<path fill-rule="evenodd" clip-rule="evenodd" d="M758.73 261.499L761.684 379.957L736.582 380.672C733.38 343.741 730.177 298.428 726.975 261.497C725.329 249.637 736.237 245.949 742.018 246.804C747.032 247.548 757.055 249.569 758.73 261.499Z" fill="#229BD8"/>
<path d="M773.957 343.246C773.948 338.635 773.927 334.072 773.905 329.661C773.798 307.27 773.705 287.931 775.137 273.422C776.729 257.303 780.124 249.196 785.826 247.908L786.005 248.7C780.692 249.897 777.497 257.778 775.946 273.5C774.519 287.969 774.612 307.287 774.719 329.656C774.74 334.069 774.762 338.633 774.771 343.243L773.957 343.246Z" fill="#064C6F"/>
<path d="M736.106 379.928C734.529 361.673 732.923 341.072 731.372 321.151C729.797 300.923 728.167 280.006 726.566 261.533C725.938 257.014 727.085 253.152 729.883 250.384C733.375 246.926 738.649 245.896 742.075 246.403C744.901 246.821 748.565 247.565 751.84 249.611C755.935 252.171 758.39 256.152 759.13 261.44L759.134 261.485L760.219 304.949L759.405 304.971L758.323 261.53C756.784 250.636 748.246 248.138 741.956 247.206C738.725 246.731 733.748 247.698 730.456 250.959C727.811 253.578 726.773 257.105 727.375 261.44C728.981 279.937 730.608 300.857 732.183 321.085C733.734 341.006 735.338 361.604 736.915 379.857L736.106 379.928Z" fill="#064C6F"/>
<path fill-rule="evenodd" clip-rule="evenodd" d="M740.592 102.521C740.784 102.352 741.077 102.371 741.246 102.563L749.904 111.85C750.074 112.043 750.055 112.336 749.862 112.505C749.67 112.674 749.377 112.656 749.208 112.463L740.55 103.176C740.381 102.984 740.399 102.691 740.592 102.521Z" fill="#064C6F"/>
<path d="M742.58 117.765C744.35 115.641 745.441 114.196 745.97 113.076C746.279 112.422 747.114 111.92 747.825 112.054C753.654 113.148 761.149 107.066 763.59 108.287C765.71 109.347 770.217 110.496 772.205 110.275C772.205 116.682 769.37 127.706 759.812 127.706C749.87 127.706 744.347 121.3 742.58 117.765Z" fill="#229BD8"/>
<path fill-rule="evenodd" clip-rule="evenodd" d="M698.832 217.276C698.63 239.47 728.443 250.771 734.595 249.575L736.277 239.429C736.277 239.429 735.035 238.856 733.141 237.815C725.821 233.787 724.827 226.141 716.746 218.565L698.832 217.276Z" fill="#F8E4BD"/>
<path fill-rule="evenodd" clip-rule="evenodd" d="M744.249 237.547C744.758 237.59 751.783 240.853 751.783 240.853L756.991 248.777C756.991 248.777 754.236 248.038 753.441 247.434C752.647 246.83 751.193 244.283 751.193 244.283L747.432 243.025L749.671 245.999C749.671 245.999 755.09 255.066 755.473 255.403C755.854 255.741 753.237 255.501 752.135 254.59C751.031 253.68 748.372 250.265 748.372 250.265C748.372 250.265 750.96 255.491 751.215 256.126C750.786 256.423 749.647 256.275 748.926 255.705L749.012 256.147C749.012 256.147 747.177 256.328 745.493 255.346C743.809 254.365 743.162 253.209 743.162 253.209C743.162 253.209 739.484 252.164 738.892 251.912C738.299 251.657 735.211 250.93 733.919 250.45C730.734 249.267 731.935 241.295 735.211 239.368C737.124 238.244 741.751 237.34 744.249 237.547Z" fill="#F8E4BD"/>
<path d="M747.986 250.4C747.982 250.388 747.53 249.105 746.778 247.814C746.026 246.524 745.044 245.376 745.034 245.364L745.65 244.834C745.693 244.884 746.69 246.048 747.48 247.406C748.272 248.765 748.733 250.074 748.753 250.132L747.986 250.4Z" fill="#064C6F"/>
<path d="M748.322 254.432C747.734 253.836 746.89 252.804 746.209 251.975C745.734 251.395 745.324 250.894 745.134 250.701C744.811 250.373 742.779 249.299 741.573 248.7L741.934 247.973C742.474 248.241 745.201 249.613 745.712 250.131C745.929 250.349 746.331 250.841 746.837 251.462C747.506 252.277 748.336 253.294 748.9 253.864L748.322 254.432Z" fill="#064C6F"/>
<path fill-rule="evenodd" clip-rule="evenodd" d="M833.94 204.841C825.799 228.679 798.506 251.849 798.506 251.849L791.892 241.353C796.486 237.662 811.88 207.415 817.556 198.813L833.94 204.841Z" fill="#F8E4BD"/>
<path fill-rule="evenodd" clip-rule="evenodd" d="M806.656 157.371C814.305 167.532 830.926 195.683 833.772 205.294L817.262 213.387C813.224 204.857 797.014 184.796 788.907 174.424L790.555 145.659C795.944 146.531 802.94 152.437 806.656 157.371Z" fill="#F8E4BD"/>
<path fill-rule="evenodd" clip-rule="evenodd" d="M806.656 157.371C809.599 161.283 813.874 167.859 818.18 175.017C816.89 178.102 811.228 191.16 805.795 196.17C800.635 189.273 794.866 182.007 790.596 176.576C794.259 171.761 800.801 163.203 806.04 156.584C806.254 156.848 806.459 157.112 806.656 157.371Z" fill="#F2CC93"/>
<path fill-rule="evenodd" clip-rule="evenodd" d="M784.47 243.116C783.996 243.304 778.249 248.476 778.249 248.476L775.601 257.562C775.601 257.562 778.013 256.05 778.596 255.242C779.177 254.434 779.817 251.575 779.817 251.575L783.038 249.274L781.774 252.765C781.774 252.765 779.26 263.004 778.993 263.439C778.727 263.874 781.156 262.878 781.941 261.687C782.726 260.497 784.265 256.456 784.265 256.456C784.265 256.456 783.328 262.203 783.268 262.883C783.763 263.04 784.81 262.567 785.329 261.813L785.379 262.26C785.379 262.26 787.182 261.897 788.5 260.466C789.82 259.035 790.098 257.745 790.098 257.745C790.098 257.745 793.303 255.672 793.793 255.256C794.285 254.84 797.016 253.243 798.108 252.407C800.801 250.346 797.319 243.088 793.626 242.208C791.474 241.695 786.792 242.187 784.47 243.116Z" fill="#F8E4BD"/>
<path d="M784.672 256.476L783.861 256.445C783.863 256.386 783.92 255 784.277 253.472C784.634 251.944 785.243 250.542 785.269 250.482L786.014 250.808C786.007 250.822 785.407 252.205 785.067 253.658C784.729 255.107 784.672 256.464 784.672 256.476Z" fill="#064C6F"/>
<path d="M785.536 260.423L784.815 260.047C785.184 259.339 785.678 258.129 786.076 257.155C786.38 256.411 786.621 255.824 786.763 255.55C787.101 254.904 789.299 252.798 789.737 252.385L790.296 252.974C789.321 253.899 787.696 255.52 787.484 255.926C787.358 256.166 787.113 256.767 786.83 257.461C786.423 258.452 785.921 259.683 785.536 260.423Z" fill="#064C6F"/>
<path fill-rule="evenodd" clip-rule="evenodd" d="M790.615 144.622C796.122 144.394 807.96 155.819 819.196 170.191C817.274 176.503 807.632 188.001 801.76 191.897C801.76 191.897 794.759 186.314 788.662 178.697C787.563 169.96 787.777 146.659 790.615 144.622Z" fill="#BDE6FA"/>
<path fill-rule="evenodd" clip-rule="evenodd" d="M804.244 190.305C807.836 186.868 814.619 178.899 819.419 169.942C821.844 165.419 815.818 161.885 813.891 163.403C813.891 163.403 804.38 179.396 798.746 184.694C793.912 189.24 799.446 194.897 804.244 190.305Z" fill="#BDE6FA"/>
<path fill-rule="evenodd" clip-rule="evenodd" d="M823.863 196.273C823.28 195.929 822.957 195.218 822.902 194.904C822.848 194.59 828.776 193.645 828.776 193.645C828.776 193.645 825.203 196.352 823.863 196.273Z" fill="#EDBA68"/>
<path fill-rule="evenodd" clip-rule="evenodd" d="M847.099 199.122C846.839 198.863 844.729 199.063 844.16 198.45C841.579 195.672 836.588 190.151 836.284 189.956C835.913 189.72 829.366 188.292 829.366 188.292L821.629 191.023C821.629 191.023 823.913 191.954 824.777 191.954C825.64 191.954 827.976 190.961 827.976 190.961L831.224 192.064L828.126 192.941C828.126 192.941 819.645 196.346 819.205 196.38C818.765 196.413 820.692 197.616 821.929 197.566C823.166 197.516 826.787 196.558 826.787 196.558C826.787 196.558 822.267 198.802 821.758 199.103C821.896 199.531 822.757 200.028 823.554 200.011L823.264 200.273C823.264 200.273 824.429 201.356 826.104 201.561C827.779 201.765 828.83 201.311 828.83 201.311C828.83 201.311 831.909 202.516 832.451 202.652C832.991 202.787 835.427 204.261 836.407 204.938C837.388 205.615 841.125 207.343 841.939 207.26C842.75 207.177 845.823 207.845 845.823 207.845L847.099 199.122Z" fill="#BDE6FA"/>
<path d="M826.468 197.341L826.021 196.663C826.071 196.63 827.27 195.843 828.766 195.223C830.263 194.603 831.809 194.27 831.873 194.256L832.042 195.05C832.028 195.052 830.503 195.382 829.078 195.974C827.653 196.561 826.478 197.331 826.468 197.341Z" fill="#064C6F"/>
<path d="M823.675 200.439L823.559 199.636C824.377 199.519 825.695 199.203 826.751 198.949C827.555 198.756 828.193 198.604 828.507 198.559C829.247 198.452 832.342 199.027 832.953 199.144L832.801 199.942C831.435 199.683 829.092 199.296 828.621 199.362C828.343 199.403 827.693 199.557 826.939 199.738C825.869 199.995 824.532 200.315 823.675 200.439Z" fill="#064C6F"/>
<path fill-rule="evenodd" clip-rule="evenodd" d="M852.63 177.288C852.63 177.288 847.739 172.922 847.151 172.285C846.563 171.648 844.177 168.23 844.177 168.23C844.177 168.23 841.118 166.127 840.621 165.756C840.124 165.385 836.955 162.36 836.669 161.882C835.839 160.665 834.547 164.195 837.659 167.201C838.553 168.066 838.798 168.67 838.798 168.67L829.88 166.315C829.88 166.315 827.294 168.592 827.17 168.965C827.046 169.338 827.884 170.293 828.238 170.293C828.593 170.293 827.577 170.83 827.356 171.981C827.251 172.513 827.996 173.381 828.797 173.875C828.797 173.875 827.893 174.818 827.912 175.296C827.931 175.774 829.337 176.976 829.337 176.976C829.337 176.976 828.291 177.725 828.312 178.557C828.331 179.391 829.452 180.292 829.452 180.292L830.534 180.235L841.76 182.407L850.736 187.206L852.63 177.288Z" fill="#BDE6FA"/>
<path d="M833.769 179.891C833.74 179.891 833.712 179.891 833.686 179.888L833.733 179.078C834.321 179.113 835.675 178.629 836.107 178.315C835.774 178.063 835.146 177.763 834.735 177.595L829.32 177.381L829.351 176.57L834.906 176.789L834.97 176.815C835.115 176.872 836.407 177.395 836.866 177.913C837.028 178.096 837.061 178.341 836.952 178.567C836.617 179.258 834.606 179.891 833.769 179.891Z" fill="#064C6F"/>
<path d="M835.822 177.58L835.596 176.801C836.45 176.556 837.48 175.971 837.497 175.724C837.188 175.227 836.119 174.719 835.689 174.543L828.78 174.279L828.811 173.469L835.855 173.737L835.92 173.761C836.096 173.83 837.661 174.45 838.182 175.287C838.325 175.515 838.348 175.781 838.251 176.033C837.894 176.96 835.843 177.573 835.822 177.58Z" fill="#064C6F"/>
<path d="M830.931 174.34L830.708 173.558C831.75 173.259 832.777 172.815 832.965 172.584C832.92 172.194 832.173 171.222 831.412 170.97L831.666 170.2C832.675 170.533 833.8 171.838 833.779 172.651C833.764 173.233 832.806 173.803 830.931 174.34Z" fill="#064C6F"/>
<path fill-rule="evenodd" clip-rule="evenodd" d="M820.904 176.81L822.276 178.493C822.438 178.693 822.733 178.721 822.931 178.56L832.506 170.781C832.703 170.619 832.734 170.324 832.572 170.127L831.202 168.445C831.04 168.245 830.745 168.216 830.546 168.378L820.97 176.157C820.773 176.316 820.744 176.611 820.904 176.81Z" fill="#064C6F"/>
<path fill-rule="evenodd" clip-rule="evenodd" d="M836.001 165.355L836.26 165.673C836.291 165.712 836.507 166.125 836.469 166.156L831.664 170.044C831.626 170.075 831.347 169.711 831.316 169.673L831.057 169.355C831.026 169.317 831.033 169.262 831.069 169.231L835.875 165.345C835.913 165.312 835.97 165.317 836.001 165.355Z" fill="#064C6F"/>
<path fill-rule="evenodd" clip-rule="evenodd" d="M837.352 167.071L837.033 167.33C836.995 167.361 836.569 167.689 836.541 167.651L834.48 165.12C834.449 165.082 834.825 164.694 834.863 164.663L835.182 164.404C835.22 164.373 835.275 164.381 835.306 164.416L837.366 166.945C837.395 166.985 837.39 167.04 837.352 167.071Z" fill="#064C6F"/>
<path fill-rule="evenodd" clip-rule="evenodd" d="M821.558 177.424L821.817 177.742C821.848 177.78 821.841 177.835 821.805 177.866L819.274 179.924C819.236 179.955 819.181 179.948 819.15 179.912L818.891 179.594C818.86 179.556 818.867 179.501 818.903 179.47L821.434 177.412C821.472 177.381 821.527 177.386 821.558 177.424Z" fill="#064C6F"/>
<path fill-rule="evenodd" clip-rule="evenodd" d="M828.443 174.085L832.506 170.781C832.703 170.619 832.734 170.325 832.573 170.127L831.2 168.445C831.038 168.247 830.743 168.217 830.546 168.378L826.482 171.682L828.443 174.085Z" fill="white"/>
<path d="M828.764 170.771C828.564 170.771 828.35 170.745 828.129 170.683C827.208 170.429 826.82 169.312 826.777 169.184L827.551 168.932C827.627 169.16 827.917 169.78 828.343 169.899C829.235 170.144 829.903 169.528 830.086 169.333L830.679 169.889C830.46 170.122 829.761 170.771 828.764 170.771Z" fill="#064C6F"/>
<path d="M841.905 176.425C839.265 174.911 838.089 172.395 838.415 168.944C838.422 168.86 838.43 168.796 838.432 168.753C838.377 168.616 838.042 168.174 837.702 167.793L838.306 167.249C838.627 167.603 839.174 168.254 839.238 168.625C839.255 168.715 839.246 168.81 839.227 169.02C838.934 172.126 839.971 174.379 842.312 175.719L841.905 176.425Z" fill="#064C6F"/>
<path fill-rule="evenodd" clip-rule="evenodd" d="M897.656 212.115C876.189 209.32 849.782 189.784 849.782 189.784L852.627 177.285C852.627 177.285 891.876 194.979 900.088 198.292L897.656 212.115Z" fill="white"/>
<path d="M897.989 212.569L897.604 212.519C876.279 209.743 849.806 190.307 849.539 190.112L849.325 189.955L852.339 176.715L852.794 176.919C853.186 177.097 892.13 194.649 900.237 197.919L900.542 198.043L897.989 212.569ZM850.239 189.613C852.782 191.453 877.29 208.871 897.326 211.659L899.633 198.545C891.407 195.184 857.264 179.816 852.917 177.858L850.239 189.613Z" fill="#064C6F"/>
<path d="M907.167 290.646H899.864V371.991H907.167V290.646Z" fill="#BDE6FA"/>
<path d="M934.373 371.585H876.379V372.398H934.373V371.585Z" fill="#064C6F"/>
<path fill-rule="evenodd" clip-rule="evenodd" d="M931.806 386.755C934.587 386.755 936.857 384.488 936.857 381.71C936.857 378.931 934.587 376.664 931.806 376.664C929.025 376.664 926.756 378.929 926.756 381.71C926.758 384.488 929.025 386.755 931.806 386.755Z" fill="#BDE6FA"/>
<path fill-rule="evenodd" clip-rule="evenodd" d="M911.247 386.755C914.028 386.755 916.298 384.488 916.298 381.71C916.298 378.931 914.028 376.664 911.247 376.664C908.466 376.664 906.197 378.929 906.197 381.71C906.199 384.488 908.466 386.755 911.247 386.755Z" fill="#BDE6FA"/>
<path fill-rule="evenodd" clip-rule="evenodd" d="M850.315 253.572L889.501 355.743L878.679 362.29L827.439 272.595L825.5 257.601L850.315 253.572Z" fill="#F8E4BD"/>
<path fill-rule="evenodd" clip-rule="evenodd" d="M895.294 368.568L895.653 374.236L879.386 387.056L877.633 383.966L883.992 371.474L873.365 353.107L886.623 349.376L895.294 368.568Z" fill="#F8E4BD"/>
<path fill-rule="evenodd" clip-rule="evenodd" d="M899.531 374.186L881.406 387.825L877.63 383.968C879.641 385.023 893.015 374.961 894.045 372.068L895.292 368.567L899.531 374.186Z" fill="#064C6F"/>
<path fill-rule="evenodd" clip-rule="evenodd" d="M881.408 387.825L869.927 389.106C869.927 389.106 869.03 387.535 871.14 386.661L877.633 383.968L881.408 387.825Z" fill="#064C6F"/>
<path fill-rule="evenodd" clip-rule="evenodd" d="M852.001 262.93L861.739 358.177L847.926 356.155L824.101 272.021L824.472 260.335L852.001 262.93Z" fill="#F8E4BD"/>
<path fill-rule="evenodd" clip-rule="evenodd" d="M864.325 373.957L863.24 379.535L844.261 387.836L843.345 384.404L852.654 373.921L847.013 353.467L860.785 353.201L864.325 373.957Z" fill="#F8E4BD"/>
<path fill-rule="evenodd" clip-rule="evenodd" d="M867.006 380.461L846.021 389.088L843.345 384.404C845.024 385.932 860.507 379.57 862.236 377.029L864.327 373.956L867.006 380.461Z" fill="#064C6F"/>
<path fill-rule="evenodd" clip-rule="evenodd" d="M846.021 389.089L834.471 389.098C834.471 389.098 833.772 387.503 835.946 386.8L843.344 384.404L846.021 389.089Z" fill="#064C6F"/>
<path fill-rule="evenodd" clip-rule="evenodd" d="M824.056 268.954L826.031 277.348C826.031 277.348 850.455 286.601 875.937 288.683C875.251 281.798 873.5 274.877 873.5 274.877L824.056 268.954Z" fill="#229BD8"/>
<path fill-rule="evenodd" clip-rule="evenodd" d="M858.558 327.069L854.297 285.395L860.418 286.604L858.558 327.069Z" fill="#F2CC93"/>
<path fill-rule="evenodd" clip-rule="evenodd" d="M874.084 270.818L874.341 274.974L823.065 268.809C822.063 263.638 821.15 257.641 820.47 252.059C818.871 238.927 821.654 235.21 828.351 234.234C851.256 230.892 875.876 225.83 897.465 223.491C899.729 215.952 882.099 196.621 878.552 188.944C874.536 183.58 873.763 180.569 875.531 174.059C876.732 169.631 884.012 159.236 888.222 153.346C894.286 154.456 895.657 150.1 905.422 141.77C927.87 157.173 929.654 197.426 932.626 223.28C934.695 239.042 938.716 276.396 874.084 270.818Z" fill="white"/>
<path d="M874.778 275.436L822.724 269.178L822.667 268.888C821.698 263.897 820.775 257.937 820.066 252.109C818.558 239.722 820.711 234.94 828.29 233.833C837.281 232.521 846.677 230.919 855.767 229.372C869.694 227 884.089 224.547 897.142 223.121C898.27 218.192 891.052 208.074 885.233 199.918C882.11 195.54 879.412 191.756 878.199 189.156C874.009 183.552 873.381 180.42 875.137 173.955C876.317 169.611 882.98 159.978 887.891 153.112L888.04 152.903L888.295 152.95C892.342 153.689 894.207 151.857 898.289 147.838C900.045 146.11 902.233 143.957 905.157 141.464L905.395 141.262L905.652 141.438C914.661 147.619 921.158 158.212 925.514 173.822C929.249 187.212 930.776 201.867 932.123 214.798C932.432 217.764 932.722 220.564 933.029 223.238C934.09 231.309 936.295 248.114 925.314 259.584C915.943 269.369 898.855 273.297 874.518 271.268L874.778 275.436ZM823.409 268.444L873.907 274.514L873.65 270.374L874.119 270.414C898.448 272.513 915.475 268.679 924.726 259.018C935.439 247.831 933.267 231.285 932.223 223.333C931.916 220.649 931.623 217.847 931.314 214.879C929.97 201.981 928.449 187.362 924.731 174.038C920.47 158.768 914.161 148.377 905.45 142.281C902.664 144.672 900.561 146.742 898.862 148.413C894.782 152.427 892.698 154.483 888.407 153.789C885.459 157.913 877.18 169.537 875.924 174.164C874.228 180.412 874.809 183.264 878.879 188.7L878.922 188.774C880.092 191.307 882.911 195.259 885.897 199.442C892.237 208.329 899.421 218.399 897.856 223.606L897.778 223.863L897.509 223.891C884.408 225.31 869.918 227.779 855.905 230.166C846.811 231.715 837.407 233.317 828.409 234.631C820.437 235.796 819.612 241.635 820.873 252.005C821.567 257.709 822.467 263.529 823.409 268.444Z" fill="#064C6F"/>
<path d="M888.768 266.368C881.703 264.132 857.547 255.832 843.321 242.979L843.866 242.378C857.97 255.122 881.988 263.371 889.013 265.596L888.768 266.368Z" fill="#064C6F"/>
<path d="M902.281 259.663C896.46 259.321 882.635 256.93 867.743 250.138L868.081 249.398C882.866 256.141 896.564 258.513 902.331 258.853L902.281 259.663Z" fill="#064C6F"/>
<path fill-rule="evenodd" clip-rule="evenodd" d="M906.223 142.281C902.431 134.666 897.483 127.65 900.999 112.121C893.945 117.307 891.083 127.047 884.027 132.232C889.82 140.125 886.732 155.198 886.216 157.691C891.619 158.138 902.155 148.639 906.223 142.281Z" fill="#F8E4BD"/>
<path fill-rule="evenodd" clip-rule="evenodd" d="M900.116 126.53C899.847 124.655 899.735 122.614 899.838 120.354L891.778 123.284C889.534 126.635 887.208 129.896 884.029 132.232C885.863 134.73 886.808 137.948 887.222 141.256C890.916 144.199 896.992 142.792 899.131 140.108C901.486 137.154 901.919 131.79 900.116 126.53Z" fill="#F2CC93"/>
<path fill-rule="evenodd" clip-rule="evenodd" d="M870.786 96.3599C872.303 88.6191 886.865 84.8664 893.766 84.8996C907.971 84.9686 913.709 100.885 920.765 103.195C928.673 105.786 928.054 115.195 924.755 118.113C921.458 121.032 922.557 122.767 920.977 126.833C918.413 133.431 912.253 137.757 904.774 133.006C901.584 130.978 895.591 132.69 895.591 132.69C892.332 132.252 893.833 136.136 885.155 138.764C879.683 140.421 872.232 134.636 873.312 128.706C874.347 123.024 872.066 117.108 869.484 115.045C866.071 114.211 864.339 113.931 862.816 111.354C858.674 104.345 862.329 97.9119 870.786 96.3599Z" fill="#064C6F"/>
<path fill-rule="evenodd" clip-rule="evenodd" d="M868.366 100.163C866.218 101.941 864.888 108.807 866.544 114.716C867.398 117.763 869.515 117.948 870.189 120.46C870.279 121.394 869.784 123.39 869.156 125.615C868.571 127.695 868.021 129.344 868.178 129.703C868.595 130.639 870.488 131.207 871.576 130.979C871.576 130.979 872.803 132.938 873.759 135.231C874.751 137.615 875.487 140.35 876.105 141.12C877.318 142.63 878.087 142.66 881.522 141.957C884.96 141.253 894.877 136.961 897.98 127.407C901.082 117.853 900.154 104.691 895.567 99.7403C887.082 90.5806 877.242 92.8123 868.366 100.163Z" fill="#F8E4BD"/>
<path d="M884.679 141.31L884.372 140.556C888.795 138.764 891.89 136.549 894.114 133.588L894.763 134.075C892.449 137.16 889.244 139.458 884.679 141.31Z" fill="#064C6F"/>
<path fill-rule="evenodd" clip-rule="evenodd" d="M874.212 119.594C873.393 119.796 872.908 120.78 873.127 121.79C873.343 122.8 874.183 123.454 874.999 123.252C875.815 123.05 876.303 122.066 876.084 121.056C875.867 120.046 875.028 119.39 874.212 119.594Z" fill="#064C6F"/>
<path d="M872.634 134.502L872.553 133.694C875.684 133.378 876.712 131.955 876.719 131.94L877.406 132.373C877.397 132.39 876.26 134.136 872.634 134.502Z" fill="#064C6F"/>
<path d="M870.726 117.153L870.089 116.649C870.153 116.566 871.73 114.627 875.373 115.247L875.235 116.048C872.097 115.513 870.781 117.087 870.726 117.153Z" fill="#064C6F"/>
<path fill-rule="evenodd" clip-rule="evenodd" d="M878.658 122.182C877.004 123.204 876.153 124.822 876.755 125.797C877.359 126.771 879.188 126.733 880.842 125.711C882.495 124.689 883.347 123.071 882.745 122.096C882.141 121.122 880.311 121.162 878.658 122.182Z" fill="#E9B0B8"/>
<path fill-rule="evenodd" clip-rule="evenodd" d="M873.17 109.035C869.354 105.337 865.88 107.183 865.83 110.192C861.598 104.602 869.068 93.501 885.621 91.488C902.759 89.4037 915.17 119.155 912.184 130.104C906.323 143.42 889.18 136.702 895.879 120.479C893.802 115.276 892.843 110.644 891.909 111.003C890.926 111.376 891.835 114.121 887.593 114.87C883.604 115.573 884.363 113.139 881.803 111.283C878.915 109.185 875.981 111.761 873.17 109.035Z" fill="#064C6F"/>
<path fill-rule="evenodd" clip-rule="evenodd" d="M890.676 113.075C890.966 111.946 891.421 110.976 892.662 110.387C893.902 109.797 896.447 109.892 897.375 113.59C898.301 117.288 896.007 121.21 893.938 121.241C892.8 121.257 890.828 119.786 890.274 117.559C889.82 115.736 890.676 113.075 890.676 113.075Z" fill="#F8E4BD"/>
<path d="M892.286 114.608C892.17 114.147 892.705 113.041 893.474 112.459C894.182 111.922 895.006 111.872 895.793 112.319L895.491 112.849C894.958 112.545 894.444 112.549 893.961 112.861C893.236 113.329 892.862 114.292 892.881 114.47L892.286 114.608Z" fill="#064C6F"/>
<path fill-rule="evenodd" clip-rule="evenodd" d="M893.806 119.127C893.244 119.276 892.911 119.852 893.061 120.41C893.211 120.971 893.787 121.304 894.346 121.154C894.907 121.004 895.24 120.429 895.091 119.868C894.941 119.31 894.367 118.977 893.806 119.127Z" fill="#E9B0B8"/>
<path d="M874.062 136.188C873.612 136.188 873.326 136.078 873.3 136.069L873.6 135.313C873.64 135.327 874.594 135.667 875.827 134.647L876.345 135.273C875.444 136.019 874.623 136.188 874.062 136.188Z" fill="#064C6F"/>
<path d="M922.105 100.65C918.914 100.56 916.631 98.0878 913.99 95.2263C909.101 89.9288 903.013 83.3359 887.583 86.6585L887.412 85.8647C903.296 82.4447 909.822 89.5129 914.587 94.675C917.209 97.5151 919.278 99.7586 922.128 99.8371L922.105 100.65Z" fill="#064C6F"/>
<path d="M929.225 115.706L928.43 115.53C928.956 113.167 928.359 110.558 926.796 108.371C925.2 106.137 922.823 104.645 920.437 104.376L920.527 103.57C923.14 103.865 925.73 105.484 927.457 107.901C929.156 110.273 929.798 113.12 929.225 115.706Z" fill="#064C6F"/>
<path d="M922.16 236.616C921.867 236.616 921.517 236.548 921.106 236.365C919.609 235.699 917.69 234.218 915.468 232.502C910.65 228.785 904.044 223.692 897.48 223.897L897.454 223.084C897.59 223.079 897.725 223.077 897.861 223.077C904.586 223.077 911.147 228.139 915.965 231.858C918.146 233.541 920.03 234.996 921.436 235.621C921.81 235.787 922.324 235.923 922.647 235.637C923.059 235.274 923.109 234.328 922.776 233.225C921.841 230.135 917.435 224.524 906.868 223.084C904.27 222.73 901.111 221.998 900.797 220.522C900.732 220.218 900.747 219.628 901.57 219.12C903.444 217.962 909.539 217.622 915.135 222.078L914.628 222.713C909.587 218.701 903.813 218.689 901.996 219.811C901.824 219.918 901.541 220.13 901.589 220.353C901.686 220.809 902.928 221.727 906.975 222.278C911.652 222.915 915.734 224.469 918.781 226.775C921.163 228.576 922.899 230.841 923.551 232.99C923.989 234.437 923.853 235.656 923.183 236.246C922.997 236.412 922.664 236.616 922.16 236.616Z" fill="#064C6F"/>
<path fill-rule="evenodd" clip-rule="evenodd" d="M918.452 172.211C917.401 183.531 911.47 212.148 907.571 220.222C886.301 224.255 845.254 212.866 845.254 212.866L847.098 199.124C847.098 199.124 875.816 201.66 893.402 203.126C894.736 191.371 895.605 176.246 896.19 169.249C896.599 164.377 899.561 152.228 909.467 152.896C916.889 153.395 919.194 164.223 918.452 172.211Z" fill="white"/>
<path d="M896.935 221.483C875.085 221.483 845.498 213.354 845.148 213.257L844.808 213.162L846.749 198.683L847.137 198.717C847.422 198.743 875.627 201.231 893.043 202.686C893.959 194.493 894.668 184.559 895.187 177.274C895.415 174.061 895.613 171.287 895.786 169.213C896.295 163.143 899.823 151.835 909.494 152.488C911.649 152.633 913.507 153.607 915.02 155.383C917.268 158.019 919.621 164.02 918.858 172.248C917.806 183.58 911.897 212.197 907.936 220.396L907.905 220.458L907.767 220.596L907.643 220.62C904.46 221.226 900.82 221.483 896.935 221.483ZM845.704 212.568C849.692 213.642 887.329 223.531 907.293 219.862C909.028 216.159 911.35 207.983 913.683 197.348C915.82 187.613 917.532 177.733 918.049 172.174L918.453 172.212L918.049 172.174C918.741 164.707 916.716 158.625 914.402 155.91C913.036 154.309 911.366 153.429 909.439 153.299C900.385 152.695 897.081 163.487 896.595 169.282C896.422 171.352 896.224 174.123 895.996 177.334C895.468 184.742 894.747 194.888 893.805 203.17L893.76 203.563L893.367 203.529C877.088 202.172 850.938 199.869 847.448 199.563L845.704 212.568Z" fill="#064C6F"/>
<path d="M906.087 216.085C905.604 216.085 905.171 215.526 904.61 214.183C902.167 208.33 898.988 205.337 893.279 203.51L893.526 202.737C899.495 204.646 902.814 207.769 905.362 213.872C905.661 214.592 905.878 214.951 906.009 215.124C906.097 214.668 906.099 213.572 905.775 211.937C905.238 209.226 903.937 205.884 901.905 204.634L902.331 203.942C905.932 206.157 907.21 213.599 906.784 215.372C906.651 215.928 906.358 216.066 906.139 216.085C906.12 216.085 906.104 216.085 906.087 216.085Z" fill="#064C6F"/>
<path d="M796.641 188.802C796.434 186.941 800.58 181.332 802.372 179.008C805.245 175.279 809.147 170.801 811.386 169.204C811.69 168.988 812.18 168.56 812.056 168.139C811.926 167.697 811.1 167.215 809.773 167.153C806.739 167.01 802.334 169 799.9 175.074C799.122 177.019 798.477 178.483 797.985 179.424C797.442 180.46 797.059 180.988 796.567 180.807C796.217 180.679 795.782 180.519 796.788 176.208C797.388 173.641 798.349 170.314 799.429 167.077L800.2 167.334C798.232 173.233 797.138 177.857 796.988 179.55C797.345 178.946 798.001 177.629 799.146 174.773C801.736 168.303 806.509 166.19 809.811 166.343C811.414 166.419 812.573 167.018 812.837 167.911C812.951 168.299 812.977 169.069 811.859 169.867C807.572 172.926 797.202 186.49 797.45 188.716L796.641 188.802Z" fill="#064C6F"/>
<path d="M729.818 213.421L729.233 212.858C733.56 208.363 742.836 202.07 752.868 196.827C768.517 188.649 774.723 188.668 776.665 189.055L776.505 189.852C772.637 189.079 763.942 191.955 753.244 197.545C743.438 202.671 734.024 209.05 729.818 213.421Z" fill="#064C6F"/>
<path d="M890.374 112.463L886.398 123.067" stroke="#064C6F" stroke-width="0.7" stroke-linecap="round"/>
<path d="M898.99 123.067L892.363 128.369" stroke="#064C6F" stroke-width="0.7" stroke-linecap="round"/>
<path d="M867.841 131.021C867.541 128.921 868.061 126.823 869.166 124.393L886.398 121.742C888.518 125.984 891.258 127.265 893.025 127.707L894.351 134.335C892.804 137.427 883.746 142.95 880.433 142.95C871.131 142.95 868.503 135.66 867.841 131.021Z" fill="#229BD8"/>
<g clip-path="url(#clip0)">
<path d="M648.48 389.496H640.909V282.956H648.48V389.496ZM641.739 388.638H647.647V283.816H641.739V388.638Z" fill="#BDE6FA"/>
<path d="M565.864 389.496H558.292V282.956H565.864V389.496ZM559.125 388.638H565.034V283.816H559.125V388.638Z" fill="#BDE6FA"/>
<path fill-rule="evenodd" clip-rule="evenodd" d="M559.866 265.864C589.996 265.864 620.127 265.864 650.261 265.864C656.067 265.864 660.818 272.25 660.818 280.057V284.787C660.818 286.66 659.678 288.193 658.283 288.193C622.804 288.193 587.322 288.193 551.843 288.193C550.45 288.193 549.308 286.66 549.308 284.787V280.057C549.311 272.25 554.06 265.864 559.866 265.864Z" fill="#BDE6FA"/>
<path fill-rule="evenodd" clip-rule="evenodd" d="M569.709 176.638H640.417C651.24 176.638 660.092 185.78 660.092 196.95V226.277C660.092 237.45 651.237 246.59 640.417 246.59H569.709C558.886 246.59 550.034 237.448 550.034 226.277V196.95C550.034 185.78 558.889 176.638 569.709 176.638Z" fill="#BDE6FA"/>
<path fill-rule="evenodd" clip-rule="evenodd" d="M612.709 81.6736C607.819 75.755 593.922 77.8167 588.752 82.0256C578.129 90.6696 581.925 99.11 575.367 105.534C572.276 108.561 567.712 107.734 563.058 113.15C559.563 117.215 562.859 122.171 560.525 126.827C558.696 130.478 552.428 128.575 548.957 138.463C547.209 143.442 549.668 153.491 560.703 154.441C569.78 155.223 577.78 145.611 579.602 144.09C587.13 137.805 601.874 146.436 608.898 126.284C610.6 123.001 613.354 126.015 613.354 126.015C644.966 114.761 632.102 74.2791 612.709 81.6736Z" fill="#064C6F"/>
<path fill-rule="evenodd" clip-rule="evenodd" d="M630.719 152.972C633.51 156.665 635.331 157.771 641.68 178.059C648.03 198.347 649.705 200.617 650.489 203.546C651.446 207.109 645.828 207.846 638.768 210.752C634.435 212.535 626.51 179.671 625.656 175.864C624.172 169.277 616.355 153.329 630.719 152.972Z" fill="#F8E4BD"/>
<path fill-rule="evenodd" clip-rule="evenodd" d="M628.42 145.411C636.001 150.538 641.941 168.263 646.961 188.377L629.818 195.709C626.847 185.534 625.242 175.849 625.242 175.849C625.242 175.849 624.022 160.58 628.42 145.411Z" fill="#229BD8"/>
<path d="M629.553 196.287L629.421 195.832C626.477 185.747 624.85 176.019 624.833 175.921L624.828 175.884C624.816 175.73 623.649 160.358 628.021 145.285L628.181 144.734L628.649 145.049C635.159 149.451 641.106 163.184 647.365 188.266L647.455 188.628L629.553 196.287ZM625.656 175.796C625.736 176.276 627.3 185.476 630.086 195.13L646.469 188.123C642.633 172.806 636.669 152.144 628.656 146.102C624.589 160.594 625.61 175.192 625.656 175.796Z" fill="#064C6F"/>
<path fill-rule="evenodd" clip-rule="evenodd" d="M592.546 266.316L643.417 265.861C642.92 253.511 648.634 238.491 643.777 234.604C639.089 232.821 627.024 234.649 622.261 233.895C621.773 231.529 621.705 230.802 621.503 229.953C607.682 228.052 588.155 230.817 575.459 230.398C572.868 237.113 559.391 266.186 592.546 266.316Z" fill="#229BD8"/>
<path fill-rule="evenodd" clip-rule="evenodd" d="M626.462 383.268V381.357L627.541 359.845H637.578L636.499 378.03C636.75 378.843 638.33 380.746 639.628 382.194C640.429 383.087 641.121 383.803 641.328 383.984C643.622 385.993 644.988 385.847 644.988 388.432H626.462V383.268Z" fill="#F8E4BD"/>
<path fill-rule="evenodd" clip-rule="evenodd" d="M644.988 388.432C644.988 385.844 643.622 385.99 641.328 383.984C641.121 383.803 640.429 383.086 639.628 382.194C638.33 380.745 640.828 385.191 640.578 384.379H633.62L626.459 381.356V388.432H644.988ZM644.988 388.432H626.462V389.065H644.988V388.432Z" fill="#064C6F"/>
<path fill-rule="evenodd" clip-rule="evenodd" d="M654.357 249.778L641.154 363.383H626.681C627.241 320.427 627.521 292.734 628.081 249.778C629.881 237.395 637.815 234.517 642.542 234.517C646.576 234.517 655.767 237.971 654.357 249.778Z" fill="#229BD8"/>
<path fill-rule="evenodd" clip-rule="evenodd" d="M621.503 229.952C619.601 218.12 620.142 194.463 622.005 181.253C624.577 177.13 627.122 175.098 628.079 171.465C629.121 167.51 627.879 160.765 627.149 158.301C627.782 155.057 628.605 148.99 628.999 145.656C623.111 139.687 612.575 134.634 601.591 134.634C590.608 134.634 580.133 140.185 574.244 146.152C577.539 174.09 580.376 199.794 575.459 230.4C590.009 230.4 606.986 229.952 621.503 229.952Z" fill="#54BAED"/>
<path d="M551.921 159.179C551.894 159.179 551.87 159.179 551.843 159.179L551.846 158.319C551.872 158.319 551.897 158.319 551.924 158.319C563.562 158.319 566.943 152.425 569.663 147.686C571.156 145.084 572.447 142.836 574.804 142.245L574.999 143.08C572.983 143.585 571.833 145.589 570.377 148.123C567.7 152.792 564.035 159.179 551.921 159.179Z" fill="#064C6F"/>
<path d="M633.741 114.618L633.052 114.135C635.409 110.55 636.123 105.821 635.008 101.162C633.87 96.4048 631.001 92.3593 627.333 90.3378L627.726 89.5811C631.598 91.7157 634.623 95.9673 635.816 100.956C636.988 105.853 636.23 110.832 633.741 114.618Z" fill="#064C6F"/>
<path fill-rule="evenodd" clip-rule="evenodd" d="M593.905 134.699C593.905 140.416 605.576 161.86 610.169 161.182C613.783 160.646 610.556 139.202 610.556 134.699C610.556 128.511 610.556 124.36 610.556 118.173C605.006 118.173 599.456 108.679 593.905 108.679C593.905 114.866 593.905 128.511 593.905 134.699Z" fill="#F8E4BD"/>
<path fill-rule="evenodd" clip-rule="evenodd" d="M610.556 131.196V122.625L595.089 118.542L593.905 121.687C594.103 122.914 595.067 129.655 599.317 133.276C603.564 136.896 608.747 133.731 610.556 131.196Z" fill="#F2CC93"/>
<path fill-rule="evenodd" clip-rule="evenodd" d="M604.585 83.9717C608.632 84.0144 620.826 84.2759 621.199 98.9466C621.572 113.617 619.502 118.518 618.359 121.231C617.052 124.338 614.662 128.434 610.357 128.547C601.083 128.788 597.412 124.73 594.926 121.955C592.982 119.785 589.882 114.437 589.933 99.7613C589.987 85.0855 600.539 84.11 604.585 83.9717Z" fill="#F8E4BD"/>
<path fill-rule="evenodd" clip-rule="evenodd" d="M591.984 106.762C591.609 105.789 591.153 105.112 589.977 104.873C588.801 104.632 586.675 105.276 586.718 108.71C586.76 112.145 589.568 115.066 591.319 114.636C593.068 114.206 592.162 107.677 591.984 106.762Z" fill="#F8E4BD"/>
<path fill-rule="evenodd" clip-rule="evenodd" d="M621.169 104.596C623.732 91.3888 619.112 81.6184 604.906 81.5957C590.7 81.5731 587.566 93.624 589.977 104.873C595.681 106.067 596.896 104.521 600.381 99.1126C604.053 93.4128 605.717 88.7513 613.028 88.5879C618.909 88.4547 623.571 98.4162 621.169 104.596Z" fill="#064C6F"/>
<path fill-rule="evenodd" clip-rule="evenodd" d="M600.376 110.044C602.212 110.592 603.445 111.942 603.133 113.059C602.821 114.175 601.08 114.638 599.244 114.09C597.407 113.541 596.175 112.191 596.487 111.075C596.798 109.959 598.54 109.496 600.376 110.044Z" fill="#E9B0B8"/>
<path fill-rule="evenodd" clip-rule="evenodd" d="M617.633 104.566C616.869 104.581 616.231 105.378 616.209 106.348C616.187 107.316 616.788 108.091 617.55 108.076C618.315 108.06 618.953 107.263 618.975 106.293C618.997 105.325 618.396 104.551 617.633 104.566Z" fill="#064C6F"/>
<path d="M590.598 108.497C590.564 108.329 590.033 107.577 589.317 107.351C588.869 107.208 588.474 107.316 588.114 107.678L587.678 107.215C588.252 106.639 588.971 106.496 589.702 106.81C590.5 107.155 591.214 108.025 591.219 108.472L590.595 108.48C590.595 108.485 590.595 108.49 590.598 108.497Z" fill="#064C6F"/>
<path fill-rule="evenodd" clip-rule="evenodd" d="M604.468 104.72C605.232 104.717 605.887 105.499 605.929 106.47C605.973 107.438 605.388 108.225 604.623 108.23C603.859 108.232 603.204 107.45 603.16 106.482C603.118 105.509 603.703 104.722 604.468 104.72Z" fill="#064C6F"/>
<path d="M611.954 114.802C611.801 114.802 611.691 114.792 611.655 114.79L611.735 113.935C612.105 113.97 612.741 113.912 612.924 113.678C612.948 113.646 613.026 113.545 612.931 113.246C612.797 112.826 612.125 110.596 612.003 107.963C611.862 104.886 612.522 102.54 613.968 100.991L614.568 101.587C611.275 105.112 613.62 112.657 613.722 112.977C613.917 113.59 613.749 113.99 613.574 114.214C613.174 114.724 612.39 114.802 611.954 114.802Z" fill="#064C6F"/>
<path d="M612.137 119.161C611.012 119.161 609.643 118.915 608.053 118.186L608.391 117.401C612.665 119.368 615.111 117.525 615.213 117.444L615.717 118.125C615.641 118.188 614.375 119.161 612.137 119.161Z" fill="#064C6F"/>
<path d="M611.645 121.47C611.194 121.47 610.654 121.372 610.03 121.088L610.369 120.304C611.798 120.962 612.622 120.359 612.631 120.354L613.138 121.035C613.104 121.061 612.57 121.47 611.645 121.47Z" fill="#064C6F"/>
<path d="M601.762 101.528L601.406 100.751C604.696 99.1448 606.708 100.618 606.791 100.683L606.301 101.377C606.233 101.327 604.582 100.153 601.762 101.528Z" fill="#064C6F"/>
<path d="M619.872 101.318C617.022 100.008 615.398 101.22 615.33 101.272L614.826 100.588C614.908 100.523 616.886 99.0044 620.21 100.533L619.872 101.318Z" fill="#064C6F"/>
<path d="M607.699 129.175C604.431 128.979 598.216 127.539 593.294 120.101L593.981 119.616C598.701 126.749 604.631 128.13 607.746 128.318L607.699 129.175Z" fill="#064C6F"/>
<path fill-rule="evenodd" clip-rule="evenodd" d="M576.343 147.74C572.632 148.572 570.53 150.77 561.833 170.804C553.136 190.84 552.632 208.364 552.808 211.937C559.028 212.865 560.801 210.552 565.898 207.18C570.798 196.756 578.435 178.201 579.78 174.94C582.349 168.714 590.43 150.664 576.343 147.74Z" fill="#F8E4BD"/>
<path fill-rule="evenodd" clip-rule="evenodd" d="M562.463 166.13C559.324 173.64 556.455 181.975 554.229 189.201L572.95 194.599C577.587 184.537 581.316 176.001 583.69 168.956C588.132 155.786 587.735 146.828 581.64 144.768C574.389 142.32 569.604 149.05 562.463 166.13Z" fill="#229BD8"/>
<path d="M573.178 195.11L553.704 189.496L553.836 189.071C555.643 183.21 558.538 174.44 562.084 165.96C568.947 149.542 573.877 141.697 581.77 144.36C583.643 144.991 585.043 146.255 585.934 148.111C587.944 152.297 587.303 159.553 584.086 169.098C581.49 176.796 577.191 186.401 573.329 194.783L573.178 195.11ZM554.759 188.907L572.725 194.089C576.538 185.807 580.749 176.376 583.297 168.816C586.438 159.496 587.091 152.471 585.184 148.493C584.395 146.851 583.16 145.735 581.507 145.177C574.225 142.718 569.507 150.359 562.844 166.299C559.401 174.548 556.566 183.072 554.759 188.907Z" fill="#064C6F"/>
<path fill-rule="evenodd" clip-rule="evenodd" d="M587.213 378.417L587.639 376.363L590.679 353.649L601.467 356.04L599.171 375.179C599.258 376.109 600.532 378.536 601.606 380.399C602.266 381.548 602.851 382.486 603.031 382.727C605.047 385.432 606.55 385.601 605.97 388.382L586.056 383.966L587.213 378.417Z" fill="#F8E4BD"/>
<path fill-rule="evenodd" clip-rule="evenodd" d="M605.973 388.384C606.55 385.603 605.05 385.435 603.033 382.729C602.85 382.485 602.268 381.55 601.606 380.401C600.534 378.535 602.227 383.908 602.139 382.978L594.66 381.321L587.639 376.368L586.058 383.974L605.973 388.384ZM605.973 388.384L605.831 389.065L585.917 384.653L586.058 383.971L605.973 388.384Z" fill="#064C6F"/>
<path fill-rule="evenodd" clip-rule="evenodd" d="M627.251 251.101L603.479 361.576L589.327 358.438C594.363 315.62 597.434 291.068 602.468 248.25C604.037 236.521 613.919 232.086 619.002 233.212C624.538 234.439 629.864 238.392 627.251 251.101Z" fill="#229BD8"/>
<path d="M609.957 333.457L609.143 333.271L626.844 251.009C628.909 240.957 626.318 235.272 618.917 233.633C616.301 233.055 612.714 234.053 609.776 236.175C607.115 238.101 603.756 241.769 602.882 248.309L602.059 248.191C602.772 242.848 605.344 238.332 609.299 235.471C612.416 233.216 616.259 232.165 619.092 232.791C626.929 234.528 629.81 240.716 627.657 251.188L609.957 333.457Z" fill="#064C6F"/>
<path d="M643.639 345.611L642.813 345.508L653.943 249.725C654.464 245.36 653.568 241.795 651.279 239.122C648.819 236.251 645.027 234.941 642.545 234.941C640.802 234.941 636.359 235.381 632.799 239.452L632.18 238.876C635.965 234.549 640.689 234.081 642.545 234.081C644.598 234.081 648.88 235.021 651.902 238.551C654.355 241.415 655.319 245.209 654.769 249.825L643.639 345.611Z" fill="#064C6F"/>
<path d="M593.457 188.445L593.245 187.615C593.908 187.437 609.514 183.22 614.976 183.077L614.998 183.937C609.631 184.073 593.618 188.4 593.457 188.445Z" fill="#064C6F"/>
<path fill-rule="evenodd" clip-rule="evenodd" d="M565.793 207.183C576.477 212.458 587.015 220.938 597.578 227.865C600.364 231.488 599.316 231.068 595.775 235.571C586.552 230.611 555.798 221.479 552.744 211.766C556.156 209.883 562.547 205.413 565.793 207.183Z" fill="#F8E4BD"/>
<path fill-rule="evenodd" clip-rule="evenodd" d="M635.25 200.831C625.644 207.881 617.721 218.51 608.521 227.166C606.407 231.217 607.365 230.622 611.634 234.442C619.856 227.955 648.557 213.621 649.878 203.526C646.189 202.264 638.139 198.521 635.25 200.831Z" fill="#F8E4BD"/>
<path fill-rule="evenodd" clip-rule="evenodd" d="M595.018 227.525C595.171 227.44 597.675 228 597.938 227.847C600.517 226.336 607.217 222.172 607.575 222.072C607.97 221.958 614.158 222.486 614.158 222.486L620.268 227.153C620.268 227.153 617.991 227.367 617.229 227.125C616.464 226.884 614.664 225.32 614.664 225.32L611.489 225.418L613.995 227.088C613.995 227.088 620.583 232.581 620.962 232.737C621.342 232.89 619.309 233.451 618.227 233.059C617.146 232.669 614.197 230.773 614.197 230.773C614.197 230.773 617.592 234.095 617.96 234.515C617.721 234.867 616.822 235.08 616.123 234.842L616.311 235.161C616.311 235.161 614.984 235.825 613.444 235.543C611.905 235.261 611.099 234.55 611.099 234.55C611.099 234.55 608.045 234.789 607.529 234.761C607.012 234.733 604.455 235.4 603.403 235.744C602.351 236.089 598.569 236.624 597.872 236.32C597.176 236.016 595.778 235.568 595.778 235.568L595.018 227.525Z" fill="#F8E4BD"/>
<path d="M614.234 231.606C614.226 231.596 613.396 230.563 612.3 229.627C611.201 228.689 609.942 227.963 609.93 227.955L610.334 227.206C610.388 227.236 611.669 227.978 612.828 228.969C613.99 229.959 614.838 231.018 614.874 231.063L614.234 231.606Z" fill="#064C6F"/>
<path d="M615.877 235.236C615.152 234.884 614.056 234.215 613.174 233.68C612.58 233.318 612.02 232.978 611.786 232.863C611.411 232.682 609.312 232.38 607.938 232.224L608.028 231.369C608.603 231.435 611.503 231.776 612.139 232.083C612.407 232.214 612.933 232.533 613.595 232.936C614.462 233.464 615.541 234.12 616.231 234.454L615.877 235.236Z" fill="#064C6F"/>
<path fill-rule="evenodd" clip-rule="evenodd" d="M591.202 102.807C591.411 102.658 591.7 102.707 591.849 102.915L598.477 112.194C598.626 112.402 598.578 112.692 598.369 112.841C598.161 112.99 597.871 112.941 597.722 112.733L591.094 103.454C590.945 103.246 590.994 102.956 591.202 102.807Z" fill="#064C6F"/>
<path fill-rule="evenodd" clip-rule="evenodd" d="M589.761 114.856C589.903 114.643 590.191 114.585 590.404 114.727L594.38 117.378C594.594 117.521 594.651 117.809 594.509 118.022C594.367 118.235 594.079 118.293 593.866 118.15L589.889 115.499C589.676 115.357 589.618 115.069 589.761 114.856Z" fill="#064C6F"/>
<path fill-rule="evenodd" clip-rule="evenodd" d="M590.111 111.364C590.681 111.357 591.148 111.829 591.153 112.418C591.16 113.006 590.703 113.489 590.133 113.494C589.563 113.501 589.095 113.029 589.09 112.44C589.085 111.855 589.541 111.372 590.111 111.364Z" fill="#E9B0B8"/>
<path d="M592.797 117.765C594.596 115.607 595.174 113.937 595.36 112.672C595.466 111.956 596.204 111.457 596.916 111.591C602.744 112.685 610.24 106.604 612.68 107.824C614.801 108.884 619.308 110.033 621.296 109.812C621.296 116.219 618.91 127.839 609.366 128.369C599.823 128.899 594.565 121.3 592.797 117.765Z" fill="#229BD8"/>
</g>
<defs>
<clipPath id="clip0">
<rect width="214.153" height="311.495" fill="white" transform="translate(502 78)"/>
</clipPath>
</defs>
</svg>
