<svg width="61" height="60" viewBox="0 0 61 60" fill="none" xmlns="http://www.w3.org/2000/svg">
<circle cx="30.5" cy="30" r="30" fill="#EAF5FA"/>
<path d="M46.2128 32.3729C46.2169 34.3686 45.4811 36.2997 44.1386 37.8166L44.0684 37.888L43.1773 38.7524L43.1329 38.7846L30.6064 50.8971L25.0234 45.4998L28.1292 42.4923L30.6064 44.889L35.1763 40.467L40.8813 34.959C41.4482 34.2608 41.7688 33.4055 41.7961 32.5184C41.8234 31.6314 41.5559 30.7592 41.0329 30.0297C40.6719 29.5314 40.2056 29.1126 39.6649 28.801C38.7251 28.2718 37.6131 28.1047 36.5514 28.3332C35.4896 28.5616 34.5562 29.1688 33.9377 30.0333C33.8347 29.5852 33.6988 29.1447 33.531 28.7152C33.1432 27.7099 32.5942 26.7697 31.9042 25.9291C33.4724 24.6526 35.4586 23.9551 37.5093 23.961C37.8162 23.961 38.1157 23.961 38.4115 24.0038C40.5524 24.2178 42.5352 25.1912 43.9762 26.7358C45.4173 28.2804 46.2142 30.2864 46.2128 32.3658V32.3729Z" fill="#229BD8"/>
<path d="M32.0855 30.1256C31.7365 28.9133 31.1103 27.7922 30.2529 26.845C29.3956 25.8978 28.3291 25.1486 27.132 24.6528C25.935 24.1569 24.638 23.9271 23.3367 23.9801C22.0355 24.0332 20.7631 24.3679 19.6136 24.9594C18.4641 25.551 17.4667 26.3843 16.6951 27.398C15.9235 28.4117 15.3973 29.5798 15.1553 30.8161C14.9134 32.0525 14.9619 33.3256 15.2972 34.5414C15.6325 35.7573 16.2461 36.8849 17.0928 37.841L18.0504 38.7626L23.6999 44.2241L25.3637 42.6167L26.8242 41.2236L29.3679 38.7626L30.3255 37.841C30.4254 37.7303 30.5252 37.6124 30.6176 37.4838C31.7842 36.0172 32.4149 34.2184 32.4108 32.3688C32.4066 31.6104 32.2971 30.8559 32.0855 30.1256ZM27.0534 34.987L26.399 35.6228L23.6999 38.2196L21.0341 35.6442L20.3243 34.9549C19.8236 34.3409 19.5124 33.6029 19.4264 32.8257C19.3404 32.0486 19.4831 31.2637 19.8381 30.5614C20.1931 29.859 20.746 29.2677 21.4333 28.8553C22.1206 28.4429 22.9143 28.2262 23.7233 28.2301C24.5324 28.2339 25.3238 28.4582 26.0068 28.8771C26.6899 29.2961 27.2367 29.8927 27.5845 30.5984C27.9323 31.3041 28.0669 32.0902 27.973 32.8666C27.879 33.6429 27.5603 34.3778 27.0534 34.987Z" fill="#229BD8"/>
<path fill-rule="evenodd" clip-rule="evenodd" d="M30.4583 13.0975C28.1301 13.0975 26.2427 14.9209 26.2427 17.1702V23.053L25.3352 22.9069C24.0791 22.7047 22.7953 22.7543 21.5586 23.053V17.1702C21.5586 12.4217 25.5431 8.57227 30.4583 8.57227C35.3735 8.57227 39.3581 12.4217 39.3581 17.1702V23.053C38.1214 22.7543 36.8376 22.7047 35.5815 22.9069L34.674 23.053V17.1702C34.674 14.9209 32.7866 13.0975 30.4583 13.0975Z" fill="#BDE6FA"/>
</svg>
